<?xml version="1.0" encoding="utf-8"?>
<!-- Generator: Adobe Illustrator 27.2.0, SVG Export Plug-In . SVG Version: 6.00 Build 0)  -->
<svg version="1.1" id="Слой_1" xmlns="http://www.w3.org/2000/svg" xmlns:xlink="http://www.w3.org/1999/xlink" x="0px" y="0px"
	 viewBox="0 0 24 24" style="enable-background:new 0 0 24 24;" xml:space="preserve">
<style type="text/css">
	.st0{fill:#0194FF;}
	.st1{fill:#4B5B6E;}
	.st2{fill:#FFFFFF;}
</style>
<rect class="st0" width="24" height="24"/>
<g>
	<path class="st1" d="M9,17.71c-0.19,0-0.39-0.02-0.58-0.05c-0.97-0.17-1.68-0.6-2.09-1.29c-0.78-1.31-0.21-3.05-0.19-3.12
		l0.11-0.32l2.07,1.07l-0.07,0.24C8.17,14.46,8,15.18,8.21,15.53c0.06,0.1,0.16,0.16,0.3,0.18c0.07,0.01,0.14,0.01,0.21,0.01
		c1.16,0,1.7-1.62,1.7-1.64l0.8-2.38H9.92L8.6,13.03l-0.21-0.18c-0.02-0.02-2.15-1.96-1.08-4.33c0.62-1.37,2.02-2.23,3.66-2.23h0.18
		c0.81,0.03,1.8,0.38,2.61,0.71c0.64-0.47,1.33-0.71,2.09-0.71c0.97,0,1.72,0.33,2.05,0.91c0.23,0.41,0.23,0.9-0.01,1.31
		c-0.32,0.56-1.01,0.89-1.84,0.89l0,0c-0.56-0.01-1.03-0.13-1.46-0.27c-0.12,0.21-0.23,0.43-0.34,0.66h1.43l-0.58,1.9h-1.52
		l-1.03,3.12C12.52,14.96,11.48,17.71,9,17.71z M10.73,8.21c-1.14,0-1.45,0.97-1.47,1.34c-0.05,0.82,0.68,1.75,0.69,1.76l0.06,0.08
		l0.48-1.56h1.29c0.11-0.28,0.33-0.82,0.7-1.4C12.04,8.31,11.46,8.21,10.73,8.21z"/>
	<path class="st2" d="M16.2,7.49c0,0-0.01,0-0.01,0c-0.36,0-0.7,0.16-1.01,0.43c0.4,0.16,0.72,0.27,0.91,0.28h0.05
		C16.91,8.21,17.21,7.52,16.2,7.49z M16.2,7.49c0,0-0.01,0-0.01,0c-0.36,0-0.7,0.16-1.01,0.43c0.4,0.16,0.72,0.27,0.91,0.28h0.05
		C16.91,8.21,17.21,7.52,16.2,7.49z M16.2,7.49c0,0-0.01,0-0.01,0c-0.36,0-0.7,0.16-1.01,0.43c0.4,0.16,0.72,0.27,0.91,0.28h0.05
		C16.91,8.21,17.21,7.52,16.2,7.49z"/>
	<path class="st2" d="M15.85,6c-0.77,0.01-1.48,0.23-2.13,0.68c-0.8-0.32-1.75-0.64-2.55-0.68h-0.19C9.22,6,7.72,6.91,7.05,8.39
		c-1.15,2.55,1.06,4.57,1.15,4.66l0.42,0.37L9,13.03L10.05,12h0.76l-0.67,1.99c-0.01,0.02-0.5,1.44-1.43,1.44
		c-0.05,0-0.11,0-0.16-0.01c-0.07-0.01-0.09-0.03-0.09-0.04c-0.11-0.19-0.04-0.74,0.06-1.05l0.16-0.47l-0.44-0.23l-1.55-0.8
		l-0.6-0.32l-0.21,0.64c-0.03,0.08-0.64,1.94,0.21,3.37c0.46,0.76,1.23,1.25,2.29,1.43C8.58,17.98,8.79,18,9,18
		c2.67,0,3.78-2.93,3.83-3.06L13.8,12h1.52l0.13-0.42l0.4-1.33l0.16-0.56h0.03c1.5,0,2.31-0.95,2.31-1.84
		C18.37,6.96,17.58,6,15.85,6z M10.28,9.53l-0.12,0.41l-0.24,0.78C9.73,10.4,9.54,9.94,9.56,9.57C9.57,9.27,9.82,8.5,10.73,8.5
		c0.45,0,0.86,0.03,1.29,0.12c-0.19,0.35-0.34,0.67-0.44,0.91L10.28,9.53L10.28,9.53z M16.06,9.12h-0.05
		c-0.54-0.01-1.03-0.15-1.54-0.34c-0.25,0.39-0.46,0.84-0.64,1.31h1.47l-0.4,1.33h-1.52l-1.09,3.33c0,0-0.98,2.67-3.28,2.67
		c-0.17,0-0.36-0.01-0.54-0.04c-3.22-0.55-2.04-4.04-2.04-4.04l1.55,0.8c0,0-0.56,1.69,0.5,1.86c0.09,0.01,0.17,0.01,0.25,0.01
		c1.39,0,1.98-1.84,1.98-1.84l0.93-2.76h-1.31l0.4-1.31H12c0,0,0.29-0.95,0.95-1.86c-0.62-0.19-1.33-0.34-2.21-0.34
		c-1.21,0-1.72,0.97-1.76,1.61c-0.06,0.95,0.76,1.95,0.76,1.95L8.6,12.62c0,0-2-1.8-1.02-4c0.55-1.22,1.84-2.04,3.4-2.04h0.17
		c0.79,0.03,1.77,0.38,2.67,0.76c0.54-0.44,1.21-0.75,2.04-0.76c0.01,0,0.01,0,0.01,0C18.5,6.58,18.3,9.12,16.06,9.12z"/>
</g>
</svg>
