<?xml version="1.0" encoding="utf-8"?>
<!-- Generator: Adobe Illustrator 27.2.0, SVG Export Plug-In . SVG Version: 6.00 Build 0)  -->
<svg version="1.1" id="Слой_1" xmlns="http://www.w3.org/2000/svg" xmlns:xlink="http://www.w3.org/1999/xlink" x="0px" y="0px"
	 viewBox="0 0 24 24" style="enable-background:new 0 0 24 24;" xml:space="preserve">
<style type="text/css">
	.st0{fill-rule:evenodd;clip-rule:evenodd;fill:#28A8E8;}
	.st1{fill-rule:evenodd;clip-rule:evenodd;fill:#FFFFFF;}
</style>
<rect class="st0" width="24" height="24"/>
<path id="Path-3" class="st1" d="M6.94,11.31c3.2-1.38,5.33-2.32,6.39-2.76c3.07-1.25,3.7-1.5,4.07-1.5c0.06,0,0.31,0,0.44,0.13
	c0.13,0.06,0.13,0.19,0.13,0.31c0,0.06,0.06,0.25,0,0.44c-0.19,1.75-0.88,5.95-1.25,7.89c-0.13,0.81-0.44,1.07-0.75,1.13
	c-0.63,0.06-1.13-0.44-1.75-0.81c-0.94-0.63-1.5-1-2.44-1.63c-1.07-0.69-0.38-1.13,0.25-1.75c0.19-0.19,2.94-2.69,3.01-2.94
	c0,0,0-0.13-0.06-0.19s-0.19-0.06-0.25,0c-0.13,0-1.63,1.07-4.64,3.07C9.64,13,9.26,13.13,8.89,13.13c-0.38,0-1.13-0.25-1.69-0.38
	C6.51,12.5,5.94,12.44,6,12.06C6.13,11.75,6.44,11.5,6.94,11.31z"/>
</svg>
