<?xml version="1.0" encoding="utf-8"?>
<svg version="1.1" xmlns="http://www.w3.org/2000/svg" xmlns:xlink="http://www.w3.org/1999/xlink" x="0px" y="0px"
	 viewBox="0 0 24 24" style="enable-background:new 0 0 24 24;" xml:space="preserve">
<path style="fill:#FFF;" d="M17.8,9.1c-0.1-0.5-0.5-0.9-1.1-1.1C15.8,7.8,12,7.8,12,7.8s-3.8,0-4.7,0.2C6.8,8.2,6.4,8.6,6.2,9.1
	C6,10.1,6,12,6,12s0,1.9,0.2,2.9c0.1,0.5,0.5,0.9,1.1,1.1c0.9,0.2,4.7,0.2,4.7,0.2s3.8,0,4.7-0.2c0.5-0.1,0.9-0.5,1.1-1.1
	C18,13.9,18,12,18,12S18,10.1,17.8,9.1z M10.8,13.8v-3.6l3.1,1.8L10.8,13.8z"/>
</svg>
