<?xml version="1.0" encoding="utf-8"?>
<!-- Generator: Adobe Illustrator 27.2.0, SVG Export Plug-In . SVG Version: 6.00 Build 0)  -->
<svg version="1.1" id="Слой_1" xmlns="http://www.w3.org/2000/svg" xmlns:xlink="http://www.w3.org/1999/xlink" x="0px" y="0px"
	 viewBox="0 0 749.6 565.14" style="enable-background:new 0 0 749.6 565.14;" xml:space="preserve">
<style type="text/css">
	.st0{fill:#231F20;}
	.st1{fill:#FF6433;}
	.st2{fill:#414271;}
	.st3{fill:#9943E2;}
	.st4{fill:#FF4267;}
	.st5{fill:#1BCEC4;}
	.st6{fill:#5646FF;}
	.st7{fill:#FF9E33;}
	.st8{fill:#FFFFFF;}
</style>
<g>
	<g>
		<rect x="374.8" class="st0" width="178.76" height="178.76"/>
		<rect x="374.8" class="st1" width="178.76" height="178.76"/>
		<rect x="374.8" class="st2" width="178.76" height="89.38"/>
	</g>
	<g>
		<rect x="374.8" y="178.76" class="st3" width="178.76" height="178.76"/>
	</g>
	<g>
		<path class="st4" d="M374.8,0v178.76H196.04C294.77,178.76,374.8,98.72,374.8,0z"/>
		<path class="st5" d="M374.8,0c0,98.72-80.03,178.76-178.76,178.76V0H374.8z"/>
	</g>
	<g>
		<path class="st6" d="M196.04,178.76H374.8v178.76C374.8,258.79,294.77,178.76,196.04,178.76z"/>
		<path class="st7" d="M196.04,178.76c98.72,0,178.76,80.03,178.76,178.76H196.04V178.76z"/>
	</g>
</g>
<g>
	<g>
		<path class="st8" d="M67.93,535.71v0.53H49.67L15.5,496.29v39.94H0v-89.35h15.5v40.08l32.06-40.08h17.61v0.39l-35.21,43.89
			L67.93,535.71z"/>
		<path class="st8" d="M79.62,446.89h55.84v14.32H95.13v25.75h36.13v13.93H95.13v35.35h-15.5V446.89z"/>
		<path class="st8" d="M194.13,480.13c4.25,2.63,7.58,6.26,9.99,10.91c2.41,4.64,3.61,9.85,3.61,15.64c0,6.04-1.21,11.41-3.61,16.1
			c-2.41,4.69-5.74,8.34-9.99,10.97c-4.25,2.63-9.05,3.94-14.39,3.94c-3.94,0-7.6-0.72-10.97-2.17c-3.37-1.45-6.29-3.44-8.74-5.98
			c0.17,2.72,0.26,7.36,0.26,13.93v21.68h-14.32v-87.51h9.72l2.76,8.93c2.45-3.33,5.5-5.89,9.13-7.69
			c3.63-1.79,7.69-2.69,12.15-2.69C185.09,476.19,189.88,477.5,194.13,480.13z M188.62,520.14c3.02-3.37,4.53-7.73,4.53-13.07
			c0-5.43-1.51-9.83-4.53-13.2c-3.02-3.37-6.99-5.06-11.89-5.06c-5.08,0-9.18,1.66-12.29,4.99c-3.11,3.33-4.66,7.67-4.66,13.01
			c0,5.52,1.58,9.97,4.73,13.34c3.15,3.37,7.23,5.06,12.22,5.06C181.63,525.2,185.59,523.51,188.62,520.14z"/>
		<path class="st8" d="M260.68,478.82l-3.68,12.09c-2.45-0.87-4.99-1.31-7.62-1.31c-4.2,0-7.58,1.31-10.12,3.94
			c-2.54,2.63-3.81,6.22-3.81,10.77v31.93h-14.32v-58.6h9.72l2.76,8.67c1.66-3.24,3.94-5.72,6.83-7.42
			c2.89-1.71,6.26-2.56,10.12-2.56C254.42,476.32,257.79,477.15,260.68,478.82z"/>
		<path class="st8" d="M278.75,534c-4.78-2.63-8.5-6.31-11.17-11.04c-2.67-4.73-4.01-10.07-4.01-16.03c0-5.96,1.33-11.28,4.01-15.96
			c2.67-4.69,6.39-8.34,11.17-10.97c4.77-2.63,10.18-3.94,16.23-3.94c6.04,0,11.47,1.31,16.29,3.94c4.82,2.63,8.56,6.29,11.23,10.97
			c2.67,4.69,4.01,10.01,4.01,15.96c0,5.96-1.34,11.3-4.01,16.03c-2.67,4.73-6.42,8.41-11.23,11.04
			c-4.82,2.63-10.25,3.94-16.29,3.94C288.93,537.94,283.52,536.63,278.75,534z M307.26,520.14c3.11-3.37,4.66-7.77,4.66-13.2
			c0-5.43-1.56-9.83-4.66-13.2c-3.11-3.37-7.21-5.06-12.28-5.06c-4.99,0-9.07,1.71-12.22,5.12c-3.15,3.42-4.73,7.8-4.73,13.14
			c0,5.34,1.58,9.72,4.73,13.14c3.15,3.42,7.23,5.12,12.22,5.12C300.06,525.2,304.15,523.51,307.26,520.14z"/>
		<path class="st8" d="M397.99,441.63v94.6h-9.85l-2.5-8.8c-2.45,3.24-5.45,5.76-9,7.55c-3.55,1.79-7.6,2.69-12.15,2.69
			c-5.52,0-10.43-1.31-14.72-3.94c-4.29-2.63-7.62-6.28-9.99-10.97c-2.36-4.69-3.55-10.09-3.55-16.23c0-5.78,1.2-10.99,3.61-15.64
			c2.41-4.64,5.76-8.26,10.05-10.84c4.29-2.58,9.15-3.88,14.59-3.88c3.94,0,7.62,0.75,11.04,2.23c3.42,1.49,6.26,3.55,8.54,6.18
			c-0.26-5.43-0.39-11.04-0.39-16.82v-26.15H397.99z M379.6,520.21c3.06-3.33,4.6-7.75,4.6-13.27c0-5.43-1.53-9.81-4.6-13.14
			c-3.07-3.33-7.14-4.99-12.22-4.99c-4.99,0-9.02,1.66-12.09,4.99c-3.07,3.33-4.6,7.71-4.6,13.14c0,5.43,1.53,9.83,4.6,13.2
			c3.06,3.37,7.09,5.06,12.09,5.06C372.46,525.2,376.53,523.54,379.6,520.21z"/>
		<path class="st8" d="M466.71,477.63v58.6h-9.99l-2.89-8.93c-2.02,3.15-4.62,5.63-7.82,7.42c-3.2,1.8-6.81,2.69-10.84,2.69
			c-6.92,0-12.18-2.08-15.77-6.24c-3.59-4.16-5.39-9.92-5.39-17.28v-36.26h14.45v34.95c0,7.97,3.42,11.96,10.25,11.96
			c4.29,0,7.64-1.58,10.05-4.73c2.41-3.15,3.61-7.1,3.61-11.83v-30.35H466.71z"/>
		<path class="st8" d="M495.42,534.33c-4.6-2.41-8.34-5.96-11.23-10.64c-2.89-4.68-4.34-10.27-4.34-16.75
			c0-6.22,1.38-11.67,4.14-16.36c2.76-4.68,6.5-8.28,11.24-10.77c4.73-2.5,9.9-3.74,15.5-3.74c8.5,0,15.77,2.63,21.81,7.88
			l-6.96,9.59c-2.1-1.75-4.23-3.02-6.37-3.81c-2.15-0.79-4.62-1.18-7.42-1.18c-4.99,0-9.15,1.69-12.48,5.06
			c-3.33,3.37-4.99,7.82-4.99,13.34c0,5.61,1.64,10.07,4.93,13.4c3.28,3.33,7.38,4.99,12.29,4.99c3.06,0,5.78-0.48,8.15-1.45
			c2.37-0.96,4.64-2.5,6.83-4.6l7.23,9.59c-3.42,3.15-6.94,5.45-10.58,6.9c-3.64,1.45-8,2.17-13.07,2.17
			C504.9,537.94,500.02,536.74,495.42,534.33z"/>
		<path class="st8" d="M553.1,532.75c-3.11-3.2-4.66-7.99-4.66-14.39v-28.51l-10.38-0.79v-11.43h10.38l0.4-18.79h13.93v18.79h18.13
			v12.22h-18.13v27.07c0,2.72,0.55,4.64,1.64,5.78c1.09,1.14,2.69,1.71,4.8,1.71c3.42,0,6.7-1.01,9.85-3.02l4.6,10.77
			c-5.7,3.59-11.61,5.39-17.74,5.39C560.48,537.55,556.21,535.95,553.1,532.75z"/>
		<path class="st8" d="M593.83,462.98c-1.62-1.62-2.43-3.66-2.43-6.11c0-2.45,0.81-4.49,2.43-6.11c1.62-1.62,3.79-2.43,6.5-2.43
			c2.71,0,4.88,0.83,6.5,2.5c1.62,1.66,2.43,3.72,2.43,6.18c0,2.37-0.83,4.36-2.5,5.98c-1.66,1.62-3.81,2.43-6.44,2.43
			C597.62,465.42,595.45,464.61,593.83,462.98z M593.11,477.63h14.32v58.6h-14.32V477.63z"/>
		<path class="st8" d="M635.74,534c-4.78-2.63-8.5-6.31-11.17-11.04c-2.67-4.73-4.01-10.07-4.01-16.03c0-5.96,1.33-11.28,4.01-15.96
			c2.67-4.69,6.39-8.34,11.17-10.97c4.77-2.63,10.18-3.94,16.23-3.94s11.47,1.31,16.29,3.94c4.82,2.63,8.56,6.29,11.23,10.97
			c2.67,4.69,4.01,10.01,4.01,15.96c0,5.96-1.34,11.3-4.01,16.03c-2.67,4.73-6.42,8.41-11.23,11.04
			c-4.82,2.63-10.25,3.94-16.29,3.94S640.52,536.63,635.74,534z M664.26,520.14c3.11-3.37,4.66-7.77,4.66-13.2
			c0-5.43-1.56-9.83-4.66-13.2c-3.11-3.37-7.21-5.06-12.29-5.06c-4.99,0-9.07,1.71-12.22,5.12c-3.15,3.42-4.73,7.8-4.73,13.14
			c0,5.34,1.58,9.72,4.73,13.14c3.15,3.42,7.23,5.12,12.22,5.12C657.05,525.2,661.15,523.51,664.26,520.14z"/>
		<path class="st8" d="M744.28,482.17c3.55,4.07,5.32,9.88,5.32,17.41v36.66h-14.32v-35.35c0-7.97-3.33-11.96-9.99-11.96
			c-4.38,0-7.86,1.4-10.45,4.2c-2.58,2.8-3.88,6.44-3.88,10.91v32.19h-14.32v-58.6h9.72l2.89,9.2c2.1-3.24,4.8-5.85,8.08-7.82
			c3.29-1.97,7.16-2.96,11.63-2.96C735.62,476.06,740.73,478.09,744.28,482.17z"/>
	</g>
</g>
</svg>
