<?xml version="1.0" encoding="utf-8"?>
<svg version="1.1" id="S" xmlns="http://www.w3.org/2000/svg" xmlns:xlink="http://www.w3.org/1999/xlink" x="0px" y="0px"
	 viewBox="0 0 669.7 200" style="enable-background:new 0 0 669.7 200;" xml:space="preserve">
<style type="text/css">
  .st0, .st1, .st2, .st3, .st4, .st5, .st6, .st7{fill:#fff; transition: all .5s cubic-bezier(0.75, 0.35, 0.4, 0.99);}
  .st1, .st3, .st6, .bg{opacity:0}
  .kf-logo:hover{.st0{fill:#414271;}.st1{fill:#FF6433;opacity:1}.st2{fill:#9943E2;}.st3{fill:#FF4267;opacity:1}.st4{fill:#1BCEC4;}.st5{fill:#5646FF;}.st6{fill:#FF9E33;opacity:1}}
</style>
<g class="kf-logo">
<rect class="st0" x="100" y="0" width="100" height="50"/>
<rect class="st1" x="100" y="50" width="100" height="50"/>
<rect class="st2" x="100" y="100" width="100" height="100"/>
<path class="st3" d="M100,0v100H0C55.2,100,100,55.2,100,0z"/>
<path class="st4" d="M100,0c0,55.2-44.8,100-100,100V0H100z"/>
<path class="st5" d="M0,100h100v100C100,144.8,55.2,100,0,100z"/>
<path class="st6" d="M0,100c55.2,0,100,44.8,100,100H0V100z"/>
<g class="st7">
	<path d="M288.3,74.7V75h-10.2L259,52.7V75h-8.7V25h8.7v22.4L277,25h9.9v0.2l-19.7,24.5L288.3,74.7z"/>
	<path d="M294.9,25h31.2v8h-22.6v14.4h20.2v7.8h-20.2V75h-8.7L294.9,25L294.9,25z"/>
	<path d="M358.9,43.6c2.4,1.5,4.2,3.5,5.6,6.1s2,5.5,2,8.8c0,3.4-0.7,6.4-2,9c-1.4,2.6-3.2,4.7-5.6,6.1s-5.1,2.2-8,2.2
		c-2.2,0-4.2-0.4-6.1-1.2s-3.5-1.9-4.9-3.3c0.1,1.5,0.1,4.1,0.1,7.8v12.1h-8v-49h5.4l1.5,5c1.4-1.9,3.1-3.3,5.1-4.3s4.3-1.5,6.8-1.5
		C353.9,41.4,356.6,42.2,358.9,43.6z M355.9,66c1.7-1.9,2.5-4.3,2.5-7.3s-0.9-5.5-2.5-7.4s-3.9-2.8-6.6-2.8c-2.8,0-5.1,0.9-6.9,2.8
		s-2.6,4.3-2.6,7.3c0,3.1,0.9,5.6,2.6,7.5c1.8,1.9,4,2.8,6.8,2.8C351.9,68.8,354.2,67.9,355.9,66z"/>
	<path d="M396.2,42.9l-2.1,6.8c-1.4-0.5-2.8-0.7-4.3-0.7c-2.4,0-4.2,0.7-5.7,2.2s-2.1,3.5-2.1,6V75h-8V42.2h5.4l1.5,4.8
		c0.9-1.8,2.2-3.2,3.8-4.2c1.6-1,3.5-1.4,5.7-1.4C392.7,41.5,394.5,42,396.2,42.9z"/>
	<path d="M406.3,73.8c-2.7-1.5-4.8-3.5-6.2-6.2c-1.5-2.7-2.2-5.6-2.2-9c0-3.3,0.8-6.3,2.2-8.9s3.6-4.7,6.2-6.1
		s5.7-2.2,9.1-2.2s6.4,0.7,9.1,2.2s4.8,3.5,6.3,6.1s2.2,5.6,2.2,8.9s-0.8,6.3-2.2,9c-1.5,2.7-3.6,4.7-6.3,6.2
		c-2.7,1.5-5.7,2.2-9.1,2.2S409,75.2,406.3,73.8z M422.2,66c1.7-1.9,2.6-4.3,2.6-7.4s-0.9-5.5-2.6-7.4s-4-2.8-6.9-2.8
		c-2.8,0-5.1,1-6.8,2.9c-1.8,1.9-2.6,4.4-2.6,7.3c0,3,0.9,5.4,2.6,7.4c1.8,1.9,4,2.9,6.8,2.9C418.2,68.8,420.5,67.9,422.2,66z"/>
	<path d="M473,22.1V75h-5.5l-1.4-4.9c-1.4,1.8-3,3.2-5,4.2s-4.2,1.5-6.8,1.5c-3.1,0-5.8-0.7-8.2-2.2
		c-2.4-1.5-4.3-3.5-5.6-6.1c-1.3-2.6-2-5.7-2-9.1c0-3.2,0.7-6.2,2-8.8c1.4-2.6,3.2-4.6,5.6-6.1s5.1-2.2,8.2-2.2
		c2.2,0,4.3,0.4,6.2,1.2s3.5,2,4.8,3.5c-0.1-3-0.2-6.2-0.2-9.4V22.1H473z M462.7,66.1c1.7-1.9,2.6-4.3,2.6-7.4c0-3-0.9-5.5-2.6-7.3
		c-1.7-1.9-4-2.8-6.8-2.8s-5,0.9-6.8,2.8c-1.7,1.9-2.6,4.3-2.6,7.3s0.9,5.5,2.6,7.4s4,2.8,6.8,2.8C458.7,68.8,461,67.9,462.7,66.1z"
		/>
	<path d="M511.4,42.2V75h-5.6l-1.6-5c-1.1,1.8-2.6,3.2-4.4,4.2s-3.8,1.5-6.1,1.5c-3.9,0-6.8-1.2-8.8-3.5s-3-5.6-3-9.7
		V42.2h8.1v19.5c0,4.5,1.9,6.7,5.7,6.7c2.4,0,4.3-0.9,5.6-2.7c1.4-1.8,2-4,2-6.6v-17L511.4,42.2L511.4,42.2z"/>
	<path d="M527.5,74c-2.6-1.3-4.7-3.3-6.3-5.9s-2.4-5.7-2.4-9.4c0-3.5,0.8-6.5,2.3-9.1s3.6-4.6,6.3-6s5.5-2.1,8.7-2.1
		c4.8,0,8.8,1.5,12.2,4.4l-3.9,5.4c-1.2-1-2.4-1.7-3.6-2.1c-1.2-0.4-2.6-0.7-4.2-0.7c-2.8,0-5.1,0.9-7,2.8s-2.8,4.4-2.8,7.5
		s0.9,5.6,2.8,7.5s4.1,2.8,6.9,2.8c1.7,0,3.2-0.3,4.6-0.8c1.3-0.5,2.6-1.4,3.8-2.6l4,5.4c-1.9,1.8-3.9,3.1-5.9,3.9s-4.5,1.2-7.3,1.2
		C532.8,76,530.1,75.3,527.5,74z"/>
	<path d="M559.8,73.1c-1.7-1.8-2.6-4.5-2.6-8.1V49.1l-5.8-0.4v-6.4h5.8l0.2-10.5h7.8v10.5h10.1v6.8h-10.1v15.1
		c0,1.5,0.3,2.6,0.9,3.2c0.6,0.6,1.5,1,2.7,1c1.9,0,3.8-0.6,5.5-1.7l2.6,6c-3.2,2-6.5,3-9.9,3C563.9,75.8,561.5,74.9,559.8,73.1z"/>
	<path d="M582.5,34c-0.9-0.9-1.4-2-1.4-3.4s0.5-2.5,1.4-3.4s2.1-1.4,3.6-1.4s2.7,0.5,3.6,1.4c0.9,0.9,1.4,2.1,1.4,3.5
		c0,1.3-0.5,2.4-1.4,3.3c-0.9,0.9-2.1,1.4-3.6,1.4C584.7,35.4,583.4,35,582.5,34z M582.1,42.2h8V75h-8V42.2z"/>
	<path d="M606,73.8c-2.7-1.5-4.8-3.5-6.2-6.2c-1.5-2.7-2.2-5.6-2.2-9c0-3.3,0.8-6.3,2.2-8.9s3.6-4.7,6.2-6.1
		s5.7-2.2,9.1-2.2s6.4,0.7,9.1,2.2c2.7,1.5,4.8,3.5,6.3,6.1s2.2,5.6,2.2,8.9s-0.8,6.3-2.2,9c-1.5,2.7-3.6,4.7-6.3,6.2
		s-5.7,2.2-9.1,2.2S608.7,75.2,606,73.8z M621.9,66c1.7-1.9,2.6-4.3,2.6-7.4s-0.9-5.5-2.6-7.4s-4-2.8-6.9-2.8c-2.8,0-5.1,1-6.8,2.9
		c-1.8,1.9-2.7,4.4-2.7,7.3c0,3,0.9,5.4,2.7,7.4c1.8,1.9,4,2.9,6.8,2.9C617.9,68.8,620.2,67.9,621.9,66z"/>
	<path d="M666.7,44.8c2,2.3,3,5.5,3,9.7V75h-8V55.2c0-4.5-1.9-6.7-5.6-6.7c-2.5,0-4.4,0.8-5.8,2.3
		c-1.5,1.6-2.2,3.6-2.2,6.1v18h-8V42.2h5.4l1.6,5.2c1.2-1.8,2.7-3.3,4.5-4.4s4-1.7,6.5-1.7C661.9,41.4,664.7,42.5,666.7,44.8z"/>
</g>
  <rect class="bg" x="0" y="0" width="669.7" height="200"/>
</g>
</svg>
