<?xml version="1.0" encoding="utf-8"?>
<!-- Generator: Adobe Illustrator 24.3.0, SVG Export Plug-In . SVG Version: 6.00 Build 0)  -->
<svg version="1.1" id="Слой_1" xmlns="http://www.w3.org/2000/svg" xmlns:xlink="http://www.w3.org/1999/xlink" x="0px" y="0px"
	 viewBox="0 0 24 24" style="enable-background:new 0 0 24 24;" xml:space="preserve">
<style type="text/css">
	.st0{fill:none;stroke:#000000;stroke-width:2;stroke-linecap:round;stroke-linejoin:round;}
</style>
<path class="st0" d="M-24.9,6.8c-1.1-1.1-1.1-2.9,0-4c1.1-1.1,2.9-1.1,4,0l0,0l13.5,13.5l1.5,5.5l-5.5-1.5L-24.9,6.8z"/>
<path class="st0" d="M43.4,25.9c-0.8,0-1.5-0.7-1.5-1.5v-5c0-0.8,0.7-1.5,1.5-1.5c0.8,0,1.5,0.7,1.5,1.5v5
	C44.9,25.2,44.2,25.9,43.4,25.9z"/>
<path class="st0" d="M49.4,25.9h-1.5v-1.5c0-0.8,0.7-1.5,1.5-1.5c0.8,0,1.5,0.7,1.5,1.5S50.2,25.9,49.4,25.9z"/>
<path class="st0" d="M38.4,29.9c0.8,0,1.5,0.7,1.5,1.5v5c0,0.8-0.7,1.5-1.5,1.5c-0.8,0-1.5-0.7-1.5-1.5v-5
	C36.9,30.6,37.5,29.9,38.4,29.9z"/>
<path class="st0" d="M32.4,29.9h1.5v1.5c0,0.8-0.7,1.5-1.5,1.5c-0.8,0-1.5-0.7-1.5-1.5C30.9,30.6,31.5,29.9,32.4,29.9z"/>
<path class="st0" d="M42.9,30.4c0-0.8,0.7-1.5,1.5-1.5h5c0.8,0,1.5,0.7,1.5,1.5s-0.7,1.5-1.5,1.5h-5C43.5,31.9,42.9,31.2,42.9,30.4z
	"/>
<path class="st0" d="M44.4,34.9h-1.5v1.5c0,0.8,0.7,1.5,1.5,1.5c0.8,0,1.5-0.7,1.5-1.5C45.9,35.6,45.2,34.9,44.4,34.9z"/>
<path class="st0" d="M37.4,20.9h1.5v-1.5c0-0.8-0.7-1.5-1.5-1.5c-0.8,0-1.5,0.7-1.5,1.5S36.5,20.9,37.4,20.9z"/>
<path class="st0" d="M84.7,29.1V17.8c0-1.4-1.1-2.5-2.5-2.5c-1.4,0-2.5,1.1-2.5,2.5v11.3c-2.1,1.4-2.6,4.2-1.2,6.2
	c1.4,2.1,4.2,2.6,6.2,1.2c2.1-1.4,2.6-4.2,1.2-6.2C85.6,29.8,85.2,29.4,84.7,29.1z"/>
<path class="st0" d="M64.3,29.1V17.8c0-1.4-1.1-2.5-2.5-2.5c-1.4,0-2.5,1.1-2.5,2.5v11.3c-2.1,1.4-2.6,4.2-1.2,6.2
	c1.4,2.1,4.2,2.6,6.2,1.2c2.1-1.4,2.6-4.2,1.2-6.2C65.2,29.8,64.7,29.4,64.3,29.1z"/>
<path class="st0" d="M72.8,0.7H61.5c-1.4,0-2.5,1.1-2.5,2.5s1.1,2.5,2.5,2.5h11.3C74.2,7.8,77,8.4,79,7s2.6-4.2,1.2-6.2
	c-1.4-2.1-4.2-2.6-6.2-1.2C73.6-0.2,73.1,0.2,72.8,0.7z"/>
<rect x="69" y="15.8" class="st0" width="5" height="15.5"/>
<path class="st0" d="M-1.5,56v-5h20.8c1.4,0,2.5,1.1,2.5,2.5v0c0,1.4-1.1,2.5-2.5,2.5H-1.5z"/>
<path class="st0" d="M15.3,48.9L15.3,48.9c0.8,0,1.5,0.7,1.5,1.5v6c0,0.8-0.7,1.5-1.5,1.5h0c-0.8,0-1.5-0.7-1.5-1.5v-6
	C13.8,49.6,14.4,48.9,15.3,48.9z"/>
<path class="st0" d="M-6.5,53.4L-6.5,53.4c0-0.8,0.7-1.5,1.5-1.5h3.5v3H-5C-5.9,54.9-6.5,54.3-6.5,53.4z"/>
<rect x="11.3" y="82.4" transform="matrix(-1.836970e-16 1 -1 -1.836970e-16 99.1812 68.6631)" class="st0" width="8" height="3"/>
<polygon class="st0" points="21.8,81.6 21.8,86.6 -2.5,86.6 -2.5,85.6 -6.5,85.6 -6.5,82.6 -2.5,82.6 -2.5,81.6 "/>
</svg>
