<?xml version="1.0" encoding="utf-8"?>
<svg xmlns="http://www.w3.org/2000/svg" viewBox="0 0 1920 1080"
	style="background-color:#FEB060; fill:#FFF;">
	<path
		d="M714.8,440.4c34.9-8.8,72,1.9,97.5,27c9.7,9.6,24.8-5.4,15-15c-27.1-26.7-65.3-40.1-103.1-35.2
	c-38.5,5-73.4,28-92.5,62c-18.3,32.7-21,73.1-6.7,107.8c14.9,35.9,46.2,63.7,84.1,73.2c42.2,10.6,87.2-2,118.2-32.5
	c9.7-9.6-5.3-24.6-15-15c-22.7,22.4-54.8,33.6-86.5,29.2c-31.7-4.4-60-23.8-75.7-51.7c-15.3-27.3-17.2-61.1-5.1-89.9
	C657.4,470.6,683.7,448.2,714.8,440.4z" />
	<path
		d="M498.4,419.9c-42.2-10.6-87.2,2-118.2,32.5c-9.7,9.6,5.3,24.6,15,15c22.7-22.4,54.8-33.6,86.5-29.2
	c31.7,4.4,60,23.8,75.7,51.7c6.9,12.2,11,25.7,12.4,39.5c0,0-151.6,0-158.7,0c-13.7,0-13.7,21.2,0,21.2h158.7
	c-1,10-3.4,19.8-7.4,29.2c-12.4,29.6-38.8,52-69.8,59.8c-34.9,8.8-72-1.9-97.5-27c-9.7-9.6-24.8,5.4-15,15
	c27.1,26.7,65.3,40.1,103.1,35.2c38.5-5,73.4-28,92.5-62c18.3-32.7,21-73.1,6.7-107.8C567.6,457.2,536.2,429.4,498.4,419.9z" />
	<path
		d="M1255,432.8c-38.4-22.3-87.4-22-125.5,0.7c-37.6,22.5-61.1,64.3-60.5,108.1c0.6,43.7,24.9,84.9,63.1,106.4
	c48.1,27.1,109.3,18.2,148.4-20.4c9.8-9.6-5.3-24.6-15-15c-29.3,28.9-73.8,38.2-112,22.3c-33.2-13.8-57.4-45.2-62.4-80.7
	c-0.2-1.2-0.3-2.4-0.4-3.6h215.5c3.1,0,5.5-1.1,7.2-2.8c2.1-1.7,3.5-4.3,3.4-7.8C1316.4,496.2,1293,454.9,1255,432.8z
		M1090.7,529.4c3-27.6,17.1-53.7,39.4-70.8c28.8-22.2,68.5-27.4,102.1-13.5c34.8,14.4,58.5,47.4,62.6,84.3H1090.7z" />
	<path
		d="M1079.6,437.4c13.7,0,13.7-21.2,0-21.2H853c-13.7,0-13.7,21.2,0,21.2h102.7v215.9c0,13.7,21.2,13.7,21.2,0
	V437.4H1079.6z" />
	<path
		d="M1532.7,416.1h-226.6c-13.7,0-13.7,21.2,0,21.2h102.7v215.9c0,13.7,21.2,13.7,21.2,0V437.4h102.7
	C1546.4,437.4,1546.4,416.1,1532.7,416.1z" />
</svg>