<?xml version="1.0" encoding="utf-8"?>
<svg version="1.1" xmlns="http://www.w3.org/2000/svg" xmlns:xlink="http://www.w3.org/1999/xlink" viewBox="0 0 770 350">
<style type="text/css">
	.d {fill:#d7dbe500;stroke:#d7dbe5;stroke-width:5;stroke-dasharray:2000;stroke-dashoffset:2000;stroke-linecap:round;stroke-linejoin:round;animation: sm 6s cubic-bezier(0.75, 0.35, 0.4, 0.99) infinite alternate;}
	@keyframes sm {0%{stroke-dasharray:2000;stroke-dashoffset:2000;fill:#d7dbe500;}30%{stroke-dashoffset:0;fill:#d7dbe500;}40%{stroke-dashoffset:0;fill:#d7dbe5FF;}100%{stroke-dashoffset:0;fill:#d7dbe5FF;}}
</style>
<path class="d" d="M353.94,186.06c1.46-6.23,2.63-12.54,3.49-18.89c0.52-3.79-18.82-4.91-20,0c-1.5,6.26-2.66,12.58-3.49,18.92
	c-2.38,10.14-5.54,20.09-9.54,29.73c-3.22,7.77-6.98,15.31-11.21,22.58c-2.04,3.51-4.19,6.96-6.46,10.34
	c-0.19,0.28-0.38,0.57-0.57,0.86c-0.16-4.8,1.17-10.38,1.58-13.21c1.22-8.39,2.44-16.77,3.66-25.16
	c2.53-17.42,5.07-34.83,7.6-52.25c0.58-4-17.85-4.22-19.64-0.82c-20.41,38.6-40.83,77.19-61.24,115.79
	c-0.81-8.41,0.02-17.27,0.37-25.07c0.84-18.74,2.55-37.43,5.09-56.02c5.04-36.86,13.39-73.27,24.91-108.64
	c5.66-17.38,12.1-34.51,19.28-51.32c1.18-2.69,2.36-5.38,3.54-8.08c1.85-4.21-17.31-5.96-19.28-1.67
	c-0.01,0-51.99,118.55-84.33,174.59c-15.91,27.57-33.34,54.3-52.86,79.46c-9.63,12.42-19.55,24.99-30.87,35.93
	c-5.23,5.05-10.84,9.73-17.19,13.32c-4.39,2.49-10.08,5.57-15.31,4.8c-14.28-2.11-25.59-17.8-30.22-30.32
	c-6.65-17.96-5.42-37.67-4.28-56.43c0.26-4.14-19.7-4.77-19.99,0c-1.87,30.98-1.93,70.01,29.53,87
	c14.14,7.64,32.75,8.02,47.69,2.58c14.91-5.43,26.92-16.32,37.35-27.96c39.51-44.12,70.7-95.16,97.81-147.77
	c-5.47,28.03-9.03,56.44-10.58,85.01c-0.92,17.04-4.31,39.41,8.27,53.22c2.01,2.2,6.98,2.28,9.64,2.28c2.23,0,8.39,0.1,9.64-2.28
	c15.02-28.41,30.05-56.81,45.07-85.22c-1.03,7.05-2.06,14.11-3.08,21.17c-1.01,6.96-3.7,15.62-0.8,22.41
	c2.88,6.74,10.53,8.19,17.15,8.26c8.27,0.09,14.15-2.54,18.89-9.22c3.9-5.5,7.46-11.23,10.73-17.13c0.66,4.55,1.48,9.08,2.49,13.59
	c1.16,5.21,20.74,3.32,20,0C352.04,229.23,351.11,207.48,353.94,186.06z"/>
<path class="d" d="M435.77,169.77c-2.78-2.7-8.03-3.13-12.26-3c-0.63-1.08-1.32-2.11-2.2-3.05c-2.76-2.92-6.5-4.86-10.27-6.08
	c-9.64-3.13-21.46-2.99-30.9,0.72c-19.78,7.76-23.21,29.06-24.31,47.83c-0.3,5.16,17.32,2.9,19.64,0.82
	c1.4-1.26,2.81-2.51,4.21-3.77c1.59-1.43-1.02-2.5-3.49-3.14c0.55-7.68,1.52-15.46,4.73-22.46c1.53-3.34,3.58-6.49,6.07-9.2
	c2.89-3.14,6.02-4.54,9.58-6.57c0.01,0.01,0.01,0.01,0.02,0.02c1.28,0.83,2.73,1.16,3.98,2.14c3.31,2.59,4.29,6.49,6.74,9.72
	c0.05,0.07,0.13,0.13,0.18,0.21c-2.13,3.15-3.78,6.9-5.35,10.19c-7.84,16.48-12.48,35.49-11.04,53.82
	c0.69,8.84,4.48,16.46,13.42,19.14c8.04,2.41,22.64,3.21,28.18-4.69c2-2.85-5.66-3.7-6.98-3.81c-2.44-0.21-8.1-0.6-11.02,1.07
	c-1.88-2.45-2.78-5.63-3.25-8.63c-1.21-7.66-0.52-15.87,0.55-23.5c1.13-8.08,3.15-16.03,6.02-23.67c1.54-4.11,3.35-8.12,5.39-12.01
	c0.34-0.64,0.68-1.28,1.03-1.91c3.75-0.17,7.32-1.09,9.87-2.78C436.99,175.41,438.31,172.25,435.77,169.77z"/>
<path class="d" d="M514.74,187.84c3.29-6.57,5.86-13.52,7.64-20.67c0.85-3.44-17.82-4.52-19.64-0.82
	c-3.23,6.56-5.76,13.39-7.6,20.37c-5.97,11.92-14.42,22.55-24.92,30.95c-2.38,1.91-5.31,3.84-8.43,5.86
	c1.57-17.12,2.7-34.23,0.41-51.52c-0.66-4.99-20.51-3.86-20-0.03c3.09,23.36-0.05,46.38-2.1,69.56c-3.49,5.37-4.56,11.61-0.9,19.13
	c1.67,3.44,19.46,3.58,19.64-0.82c0.24-5.79,0.67-11.56,1.18-17.32c2.04-3.4,4.89-6.41,7.84-8.69
	c7.67-5.92,16.35-10.12,23.82-16.35c0.36,11.13,2.47,22.23,6.38,32.9c1.99,5.41,20.91,2.49,20,0
	C510.71,230.4,509.56,208.38,514.74,187.84z"/>
<path class="d" d="M757,177.69c-4.15-0.78-9.8-0.93-13.68,1.11c-27.05,14.23-54.1,28.46-81.15,42.69
	c-12.83,6.75-25.6,13.65-38.51,20.25c-3.01,1.54-6.05,3.04-9.23,4.17c-1.14,0.41-3.24,0.59-4.28,1.23c-4.79-2.1-8.06-5.79-10-10.73
	c-2.96-7.53-2.94-16-1.88-24.13c22.65-10.87,43.53-28.27,56.1-49.91c2.92-5.03,5.76-11.51,4.53-17.45
	c-1.42-6.89-7.54-10.17-13.98-11.4c-7.85-1.49-16.86-0.81-24.08,2.78c-6.2,3.08-11.08,8.58-15.45,13.81
	c-9.49,11.35-16.76,24.51-21.57,38.49c-2.35,6.84-4.41,14.27-5.46,21.77c-0.96,0.44-1.93,0.86-2.9,1.27
	c0.39-2.09,0.69-4.17,0.86-6.2c1.15-13.91-2.46-30.3-17.34-35.06c-8.16-2.61-18.91-2.49-26.58,1.67
	c-6.44,3.5-10.17,10.09-13.34,16.41c-0.8,1.6,1.89,2.89,5.51,3.57c-0.46,5.73-0.91,11.46-1.36,17.2
	c-0.67,8.46-2.57,17.74-1.58,26.19c1.99,17.02,26.42,16.27,36.83,7.68c7.85-6.48,13.22-16.55,15.95-26.79
	c0.86,0.35,1.67,0.6,2.07,0.67c0.4,0.07,0.81,0.13,1.22,0.19c-0.22,4.33-0.03,8.63,0.7,12.8c2.47,14.01,12.09,21.99,26.15,23.33
	c17.66,1.69,32.46-6.36,47.54-14.29c36.17-19.03,72.33-38.05,108.5-57.08C764.46,179.9,758.7,178.01,757,177.69z M551.49,224.32
	c-2.31,5.07-5.41,10.09-9.26,14.21c-0.78-2.33-0.81-4.94-0.74-7.34c0.47-16.08,2.52-32.26,3.79-48.29c0.06-0.77-0.59-1.42-1.7-1.94
	c1.23-1.69,2.61-3.22,4.22-4.48c0.11,0.08,0.22,0.15,0.32,0.23c2.69,2.14,4.58,5.14,5.84,8.3
	C558.8,197.17,556.8,212.66,551.49,224.32z M612.56,169.25c5.72-10.09,22.59-30.01,26.53-23.06c2.88,5.08-2.09,11.58-5.11,16.33
	c-8.57,13.49-19.78,25.12-32.67,34.47C603.86,187.3,607.62,177.97,612.56,169.25z M610.08,247.18c0,0-0.01,0.01-0.01,0.01
	C609.34,247.69,608.5,246.7,610.08,247.18z"/>
</svg>
