<?xml version="1.0" encoding="utf-8"?>
<svg version="1.1" xmlns="http://www.w3.org/2000/svg" xmlns:xlink="http://www.w3.org/1999/xlink" viewBox="0 0 950 420">
<style type="text/css">
	.d {fill:#d7dbe500;stroke:#d7dbe5;stroke-width:5;stroke-dasharray:2000;stroke-dashoffset:2000;stroke-linecap:round;stroke-linejoin:round;animation: sm 6s cubic-bezier(0.75, 0.35, 0.4, 0.99) infinite alternate;}
	@keyframes sm {0%{stroke-dasharray:2000;stroke-dashoffset:2000;fill:#d7dbe500;}30%{stroke-dashoffset:0;fill:#d7dbe500;}40%{stroke-dashoffset:0;fill:#d7dbe5FF;}100%{stroke-dashoffset:0;fill:#d7dbe5FF;}}
</style>
<path class="d" d="M398.13,118.01c-18.46-8.08-40.14-9.83-59.93-5.04c3.73-11.27,6.32-22.92,7.65-34.73c1.54-13.66,0.9-30.82-13.16-37.82
	c-12.07-6.01-26.25-4.87-38.72,0.11c-1.22-10.23-2.68-20.44-4.4-30.61c-1.06-6.19-25.75-4.34-25.01,0.01
	c2.6,15.28,4.59,30.65,6.01,46.07c-12.93,11.75-23.86,25.83-32.56,40.9c-2.11,3.66,6.84,4.45,8.73,4.61
	c3.2,0.27,13.31,1.02,15.41-2.62c3.16-5.47,6.6-10.75,10.31-15.83c3.14,65.97-4.38,132.39-22.33,196.01
	c-4.33,15.33-9.27,30.48-14.79,45.42c-14.98,1.49-30.06,1.84-45.01,1.14c-56.07-2.6-110.71-17.57-163.89-34.61
	c-5.38-1.72-12.3-1.7-17.68,0c-4.31,1.36-4.49,3.86,0,5.3c71.27,22.85,148.26,41.32,223.49,36.33c-2.43,6.29-4.95,12.54-7.58,18.75
	c-1.28,3.02,11.24,3.75,12.5,3.75c3.49,0,10.84,0.16,12.5-3.75c3.01-7.09,5.87-14.25,8.6-21.45c22.05-3.15,43.86-8.52,65.26-16.63
	c42.98-16.29,86.64-44.45,108.35-86.33c10.38-20.02,15.36-43.65,7.54-65.44C432.44,142.1,417.01,126.28,398.13,118.01z
		M308.18,47.56c0.48-0.28,2.92-1.26,4.81-2.1c0.91,0.66,1.79,1.29,2.6,2.2c8.51,9.62,6.17,25.57,4.41,37.15
	c-2.22,14.53-6.33,28.8-12.16,42.29c-3.63,2.74-7.01,5.79-10.1,9.1c0.66-16.66,0.65-33.35-0.06-50.02
	c-0.41-9.71-1.06-19.41-1.95-29.09C299.59,53.53,303.67,50.17,308.18,47.56z M408.89,222.81c-18.99,38.66-57.27,66-96.07,82.39
	c-16.46,6.95-33.62,12.03-51.09,15.43c16.87-46.72,27.98-95.46,33.14-144.84c4.24-0.4,7.94-1.28,8.93-2.42
	c11.51-13.22,21-28.18,28.12-44.18c1.04-0.75,2.1-1.47,3.18-2.16c6.77-4.3,15.33-8.06,22.69-8.91c3.64-0.42,3.69-0.42,7.87,0.33
	c4.2,0.75,8.31,2.14,12.18,3.92c16.73,7.71,30.75,22.33,36.82,39.84C421.56,182.12,418.02,204.22,408.89,222.81z"/>
<path class="d" d="M502.13,259.41c5.01-6.81,9.19-14.5,12.66-22.49c0.48,1.01,1.02,1.97,1.68,2.86c5.78,7.83,18.91,7.47,27.3,6.08
	c2.45-0.4,8.91-2.36,4.48-5.13c-1.82-1.14-4.24-1.7-6.8-1.91c-0.15-0.14-0.3-0.3-0.46-0.48c-0.93-1.07-1.53-2.37-2-3.69
	c-1.02-2.85-1.28-5.98-1.7-8.95c-1.02-7.21-2.03-14.43-3.05-21.64c-2.03-14.43-4.07-28.86-6.1-43.28c-0.82-5.83-25.35-4.97-25,0
	c1.24,17.79-0.46,35.67-5.18,52.88c-2.49,9.05-5.75,17.92-9.88,26.35c-2.69,5.5-5.57,11.42-9.28,16.49
	c-0.24-0.88-0.44-1.77-0.61-2.66c-1.75-9.11-1.46-18.83-1.99-28.06c-1.16-20.32-2.32-40.65-3.49-60.97
	c-0.33-5.69-25.3-5.12-25.01,0c1.07,18.68,2.14,37.37,3.21,56.05c0.52,9.06,0.88,18.13,1.56,27.18c0.43,5.7,1.45,12.59,5.58,16.92
	c6.18,6.49,17.91,6.61,26.02,5.34C491.65,269.12,497.58,265.59,502.13,259.41z"/>
<path class="d" d="M941.96,119.37c-5.1-0.93-12.33-1.21-17.1,1.35c-57.31,30.75-116.6,57.87-177.46,80.82
	c-30.18,11.38-60.73,21.78-91.58,31.17c-6.7,2.04-13.46,3.95-20.25,5.81c-1.79-12.16-3.62-24.31-5.48-36.46
	c-0.54-3.51-1.09-7.01-1.64-10.52c0.42-4.8-0.28-9.79-2.29-14.69c-0.01-0.05-0.01-0.09-0.02-0.14c-0.01,0-0.02,0-0.04,0
	c-0.14-0.33-0.27-0.67-0.42-1c-0.47-1.03-2.1-1.78-4.3-2.25c0.36-14.12-13.01-25.42-26.44-28.19
	c-18.67-3.84-40.98,1.15-51.25,18.49c-8.58,14.51-6.58,33.9,5.09,46.22c13.59,14.34,39.18,16.34,56.95,9.96
	c0.65-0.23,1.29-0.49,1.92-0.76c1.29,8.61,2.55,17.22,3.79,25.84c-15.97,4.33-31.87,8.88-47.28,14.7
	c-26.06,9.83-51.67,24.77-66.19,49.42c-13.03,22.13-13.33,47.92-0.44,70.18c13.66,23.59,38.46,35.23,65.1,35.95
	c25.26,0.68,52.13-8.04,68.38-28.24c18.79-23.36,17.04-55.22,13.54-83.21c-2.32-18.55-4.88-37.07-7.56-55.57
	c11.03-2.94,22.05-5.88,32.93-9.16c29.1-8.78,57.92-18.45,86.43-29c65.24-24.14,128.79-52.7,190.09-85.59
	C951.2,121.95,944.08,119.75,941.96,119.37z M583.67,151.73C584.07,151.54,584.04,151.76,583.67,151.73L583.67,151.73z
		M594.92,209.98c-1.98,1.93-4.25,3.5-6.8,4.59c-0.72,0.31-3.62,0.81-2.66,0.98c-4.17-0.45-9.06-4.03-12.03-7.04
	c-8.83-8.93-12.08-22.5-8.98-34.59c1.51-5.88,4.77-11.17,9.06-15.44c1.98-1.98,4.14-3.68,6.61-5.02c0.77-0.42,1.86-0.74,2.67-1.19
	c1.25,0.76,2.65,1.31,3.85,2.22c2.46,1.86,4.57,4.27,6.24,6.85c3.54,5.48,4.41,11.99,2.53,18.22c-0.37,1.2,2.62,2.41,6.65,3.14
	c0.52,3.28,1.02,6.57,1.53,9.85C602.69,199.1,599.62,205.41,594.92,209.98z M615.58,274.33c3.95,28.72,10.91,60.22,2.56,88.77
	c-6.34,21.67-24.44,39.7-46.94,44.06c-4.24,0.82-6.19,0.87-9.03,0.51c-5.28-0.66-10.3-2.53-14.99-5
	c-10.14-5.37-18.48-13.83-24.49-23.55c-12.91-20.88-13.06-46.87-0.63-67.98c13.39-22.74,36.38-37.34,60.59-46.43
	c9.9-3.72,20.01-6.89,30.2-9.83C613.77,261.36,614.69,267.84,615.58,274.33z"/>
<path class="d" d="M638.5,185.12c0.17,1.84,0.48,3.66,0.99,5.44c3.77,13.19,17.07,16.69,29.49,16.77c15.33,0.1,29.91-5.58,43.65-11.85
	c13.62-6.22,26.37-14.07,38.3-23.11c3.44-2.6-7.98-4.55-8.73-4.61c-4.87-0.41-11.28-0.48-15.38,2.62
	c-16.06,12.16-34.42,22.32-53.71,28.31c0,0-1.3,0.37-2.48,0.69c-0.16-0.12-0.34-0.24-0.55-0.39c-3.19-2.24-5.05-6.01-5.9-9.7
	c-0.45-1.95-0.69-3.92-0.76-5.9c19.85-7.23,37.6-19.96,50.13-37.1c5.57-7.63,14.57-20.15,12.54-30.18
	c-2.92-14.46-25.63-13.78-36.34-10.85c-11.95,3.27-21.5,13.5-29,22.9c-7.22,9.05-12.92,19.26-17.02,30.08
	c-2.61,6.89-5.09,14.67-5.36,22.32c-1.13,0.45-2.51,1.2-2.51,2.26C635.86,183.92,637.35,184.68,638.5,185.12z M696.93,117.34
	c1.16-1.04,2.33-2.1,3.57-3.07c0.16,0.36,0.3,0.72,0.41,1.11c0.73,2.46,0.41,5.18-0.17,7.64c-2.01,8.54-7.78,16.84-13.1,23.67
	c-6.23,8.01-13.64,15.05-21.93,20.79c0.23-0.82,0.46-1.63,0.71-2.43C671.97,146.75,682.72,130.12,696.93,117.34z"/>
<path class="d" d="M744.6,104.83c3.86,0.33,12.46,0.92,15.38-2.62c4.93-5.99,9.91-11.99,15.76-17.12c2.87-2.51,5.91-4.75,9.25-6.59
	c1.5-0.82,3.04-1.61,4.63-2.26c1.47-0.6,3.44-0.75,4.9-1.38c0.8,0.25,1.61,0.46,2.39,0.8c2.99,1.3,5.61,3.21,7.91,5.51
	c4.94,4.94,7.77,11.14,8.53,18.07c1.76,16.11-6.57,30.97-15.3,43.8c-4.19,6.16-8.39,12.67-13.48,18.14
	c-1.64,1.76-3.38,3.26-5.31,4.56c-0.14-0.16-0.27-0.32-0.39-0.5c-4.15-6.26-2.74-17.14-2.25-24.17c0.69-9.85,2.65-19.5,5.58-28.92
	c1-3.21-22.94-6.63-25.01,0.02c-3.4,10.92-5.48,22.18-5.82,33.62c-0.25,8.46-0.86,19.46,6.95,24.89
	c9.16,6.37,24.16,5.56,34.38,2.56c9.6-2.82,16.14-9.58,21.87-17.46c11.59-15.94,25.63-34.81,23.85-55.67
	c-1.75-20.5-19.77-31.46-38.82-32.76c-13.24-0.91-27.01,1.66-38.41,8.67c-10.13,6.23-17.84,15.12-25.32,24.2
	C733.13,103.54,743.24,104.72,744.6,104.83z"/>
</svg>
